<svg width="490" height="496" viewBox="0 0 490 496" fill="none" xmlns="http://www.w3.org/2000/svg">
<path d="M476 297.531C464.076 285.077 449.849 275.124 434.129 268.241C418.409 261.358 401.506 257.68 384.383 257.416C349.802 256.884 316.429 270.292 291.605 294.692C266.782 319.092 252.541 352.485 252.015 387.524C251.49 422.564 264.723 456.379 288.804 481.532" stroke="#51CBD8" stroke-width="27" stroke-linecap="round" stroke-linejoin="round"/>
<path d="M199.22 15.0142C199.22 15.0142 76.8121 117.232 244 249.392C411.188 381.553 288.78 481.532 288.78 481.532" stroke="#F4663B" stroke-width="27" stroke-linecap="round" stroke-linejoin="round"/>
<path d="M476 201.043C451.919 226.196 418.964 240.626 384.383 241.159C349.802 241.691 316.429 228.283 291.605 203.882C266.782 179.482 252.541 146.09 252.015 111.05C251.49 76.0112 264.723 42.1955 288.804 17.0425" stroke="#F5CF24" stroke-width="27" stroke-linecap="round" stroke-linejoin="round"/>
<path d="M476 200.062C476 200.062 374.969 72.3778 244.397 246.729C113.825 421.079 15 293.525 15 293.525" stroke="#CE4BF2" stroke-width="27" stroke-linecap="round" stroke-linejoin="round"/>
<path d="M14 293.651C25.9243 281.141 40.1528 271.144 55.8731 264.231C71.5933 257.318 88.4975 253.623 105.62 253.359C122.743 253.095 139.75 256.267 155.669 262.692C171.587 269.117 186.107 278.671 198.398 290.808C210.689 302.945 220.511 317.426 227.304 333.427C234.096 349.427 237.726 366.632 237.985 384.06C238.244 401.488 235.129 418.797 228.816 434.999C222.503 451.202 213.116 465.98 201.192 478.49" stroke="#F5CF24" stroke-width="27" stroke-linecap="round" stroke-linejoin="round"/>
<path d="M199.928 14C223.698 38.7598 236.993 71.8777 237 106.35C237.007 140.822 223.726 173.946 199.966 198.716C176.206 223.485 143.829 237.959 109.684 239.076C75.5378 240.193 42.3002 227.865 17 204.7" stroke="#51CBD8" stroke-width="27" stroke-linecap="round" stroke-linejoin="round"/>
</svg>
