<svg width="44" height="45" viewBox="0 0 44 45" fill="none" xmlns="http://www.w3.org/2000/svg">
<path d="M18.682 13.7332C18.6195 13.695 18.5691 13.6397 18.5369 13.5739C18.5046 13.5081 18.4918 13.4344 18.4999 13.3616C18.508 13.2887 18.5367 13.2197 18.5826 13.1625C18.6285 13.1054 18.6898 13.0625 18.7592 13.039C20.1645 12.5528 21.6606 12.3862 23.1385 12.5513C24.6163 12.7165 26.0387 13.2092 27.3021 13.9935C27.3491 14.0216 27.3896 14.0593 27.4209 14.1042C27.4522 14.1492 27.4736 14.2002 27.4836 14.254C27.4936 14.3078 27.4921 14.3632 27.4791 14.4163C27.4661 14.4695 27.4419 14.5193 27.4082 14.5624C26.2871 15.985 24.9185 17.1936 23.3681 18.13C22.1134 16.3679 20.5204 14.8732 18.682 13.7332ZM21.9893 18.8532C20.5776 16.9351 18.7257 15.3842 16.5897 14.331C16.5266 14.3024 16.4574 14.2901 16.3883 14.2952C16.3193 14.3002 16.2526 14.3225 16.1943 14.3599C14.466 15.6048 13.1739 17.3625 12.5014 19.3835C12.4855 19.4348 12.4805 19.4889 12.4866 19.5422C12.4928 19.5956 12.5101 19.647 12.5373 19.6933C12.5646 19.7396 12.6012 19.7797 12.6448 19.811C12.6884 19.8424 12.7381 19.8642 12.7907 19.8752C13.7983 20.0927 14.8261 20.2026 15.8569 20.2031C17.975 20.2058 20.0681 19.745 21.9893 18.8532ZM31.9978 21.4276C31.7512 19.1911 30.7596 17.1025 29.1823 15.4977C29.1434 15.4598 29.097 15.4303 29.0462 15.4111C28.9953 15.3919 28.9411 15.3834 28.8868 15.3861C28.8325 15.3888 28.7793 15.4027 28.7306 15.4269C28.6819 15.451 28.6388 15.485 28.6038 15.5266C27.3845 17.0827 25.8912 18.4028 24.1973 19.4221C24.7257 20.3389 25.1648 21.3043 25.5087 22.3051C26.8886 21.9319 28.3121 21.7439 29.7416 21.7458C30.3537 21.7472 30.9654 21.7827 31.5736 21.8519C31.6308 21.858 31.6886 21.8512 31.7429 21.832C31.7971 21.8128 31.8464 21.7818 31.887 21.7411C31.9277 21.7004 31.9588 21.6511 31.9779 21.5969C31.9971 21.5427 32.0039 21.4848 31.9978 21.4276ZM25.9329 23.79C26.2162 25.007 26.3586 26.2526 26.3572 27.5022C26.3565 28.6959 26.2239 29.8859 25.9619 31.0505C25.9447 31.1221 25.9484 31.1972 25.9725 31.2668C25.9966 31.3363 26.0401 31.3976 26.0979 31.4432C26.1557 31.4888 26.2254 31.517 26.2987 31.5243C26.3719 31.5316 26.4458 31.5177 26.5115 31.4844C27.9746 30.7526 29.2366 29.6743 30.1878 28.3433C31.139 27.0124 31.7504 25.4691 31.9689 23.8478C31.9757 23.7971 31.9722 23.7456 31.9589 23.6962C31.9455 23.6468 31.9224 23.6006 31.891 23.5602C31.8596 23.5198 31.8205 23.4861 31.7759 23.461C31.7314 23.4359 31.6823 23.4199 31.6314 23.4139C31.0052 23.3284 30.3737 23.2865 29.7416 23.2886C28.4555 23.287 27.1748 23.4556 25.9329 23.79ZM24.0334 22.7872C23.7279 21.8735 23.3271 20.9944 22.8378 20.1645C20.6587 21.2081 18.2729 21.7485 15.8569 21.7458C14.7258 21.7452 13.5978 21.6256 12.4918 21.3891C12.4382 21.378 12.3828 21.3784 12.3294 21.3903C12.276 21.4022 12.2258 21.4253 12.182 21.4582C12.1382 21.491 12.1019 21.5328 12.0755 21.5807C12.0491 21.6286 12.0333 21.6816 12.0289 21.7362C12.0096 21.9933 12 22.2537 12 22.5172C11.9995 23.8902 12.2818 25.2485 12.8292 26.5076C13.3766 27.7667 14.1775 28.8996 15.1819 29.8356C15.2233 29.8754 15.2732 29.9051 15.3279 29.9226C15.3826 29.94 15.4405 29.9448 15.4973 29.9364C15.554 29.928 15.6081 29.9068 15.6554 29.8742C15.7027 29.8417 15.7419 29.7988 15.7701 29.7488C17.6514 26.555 20.5666 24.0991 24.0334 22.7872ZM16.985 30.7323C16.9593 30.7765 16.9426 30.8254 16.9359 30.8762C16.9293 30.9269 16.9328 30.9784 16.9463 31.0278C16.9597 31.0771 16.9829 31.1233 17.0144 31.1636C17.0458 31.204 17.085 31.2376 17.1296 31.2626C18.624 32.1065 20.3117 32.5484 22.0278 32.5451C22.6131 32.5476 23.1973 32.496 23.7731 32.3908C23.8397 32.3797 23.902 32.3504 23.9531 32.3062C24.0041 32.262 24.0419 32.2045 24.0623 32.1401C24.5625 30.645 24.8165 29.0787 24.8144 27.5022C24.8139 26.4157 24.6943 25.3325 24.4577 24.2721C21.2992 25.5042 18.6607 27.7852 16.985 30.7323Z" fill="#111827"/>
</svg>
