<svg width="66" height="139" viewBox="0 0 66 139" fill="none" xmlns="http://www.w3.org/2000/svg">
<path d="M65.6794 74.7713C65.6794 74.6047 65.6613 74.4562 65.6239 74.2896L56.8101 37.9048C55.884 34.0907 52.4961 31.4233 48.5696 31.4233H17.1098C13.1847 31.4233 9.79552 34.0892 8.86936 37.9048L0.055539 74.2896C0.0180829 74.4381 0 74.6047 0 74.7713C0 78.8449 3.31411 82.1412 7.36987 82.1412C7.86972 82.1412 8.35151 82.0856 8.83327 81.9926L6.92558 89.4181C6.77705 90.029 6.9075 90.6774 7.29627 91.1772C7.68505 91.6771 8.2779 91.9728 8.9069 91.9728H17.5723V129.561C17.5723 134.339 21.4614 138.227 26.2376 138.227C28.9035 138.227 31.2734 137.023 32.8662 135.134C34.4587 137.023 36.8469 138.227 39.4947 138.227C44.2723 138.227 48.1601 134.337 48.1601 129.561V91.9728H56.8254C57.4544 91.9728 58.0473 91.6771 58.4361 91.1772C58.8249 90.6774 58.954 90.029 58.8068 89.4181L56.8991 81.9926C57.3615 82.0856 57.8613 82.1412 58.3625 82.1412C62.4361 82.1412 65.7323 78.8271 65.7323 74.7713H65.6794ZM54.9954 74.7894C54.9954 74.6047 54.9774 74.4381 54.9399 74.2715L48.0892 46.848C47.8115 45.7553 46.7188 45.0888 45.6261 45.3665C44.5334 45.6442 43.8669 46.7369 44.1446 47.8296V47.8851C44.071 48.2183 44.0516 48.5696 44.1446 48.9223L50.959 75.4001C51.0326 76.2332 51.2367 77.0107 51.5699 77.7521L54.1802 87.8991H46.1077C44.9789 87.8991 44.0709 88.8058 44.0709 89.936V129.561C44.0709 132.098 42.0159 134.172 39.4599 134.172C36.9051 134.172 34.849 132.117 34.849 129.561V89.936C34.849 88.8071 33.9423 87.8991 32.8121 87.8991C31.6833 87.8991 30.7753 88.8058 30.7753 89.936V129.561C30.7753 132.098 28.7203 134.172 26.1643 134.172C23.6095 134.172 21.5534 132.117 21.5534 129.561V89.936C21.5534 88.8071 20.6467 87.8991 19.5165 87.8991H11.444L14.0544 77.7521C14.3695 77.0301 14.5917 76.2332 14.6653 75.4001L21.4797 48.9223C21.5727 48.5709 21.5533 48.2002 21.4797 47.8851V47.8296C21.7574 46.7369 21.109 45.6442 20.0163 45.3665C18.9236 45.0888 17.8309 45.7553 17.5532 46.848L10.7025 74.2715C10.665 74.4381 10.6469 74.6047 10.6469 74.7713L10.24 76.3458C9.68465 77.3829 8.59195 78.0675 7.33264 78.0675C5.57348 78.0675 4.12947 76.6971 4.01853 74.9753L12.7768 38.8683C13.2586 36.887 15.0177 35.4986 17.0726 35.4986H48.5324C50.5873 35.4986 52.3464 36.8871 52.8282 38.8683L61.5865 74.9753C61.4754 76.697 60.0314 78.0675 58.2723 78.0675C57.013 78.0675 55.9203 77.3635 55.3649 76.3458L54.9581 74.7907L54.9954 74.7894Z" fill="#FFC300"/>
<path d="M32.8292 27.6272C40.4395 27.6272 46.6428 21.4235 46.6428 13.8136C46.6428 6.20367 40.4391 0 32.8292 0C25.219 0 19.0156 6.20367 19.0156 13.8136C19.0156 21.4235 25.2193 27.6272 32.8292 27.6272ZM32.8292 4.05543C38.1983 4.05543 42.5874 8.42498 42.5874 13.8136C42.5874 19.2022 38.2178 23.5718 32.8292 23.5718C27.4406 23.5718 23.071 19.2022 23.071 13.8136C23.071 8.42498 27.4406 4.05543 32.8292 4.05543Z" fill="#FFC300"/>
</svg>
