<svg width="52" height="139" viewBox="0 0 52 139" fill="none" xmlns="http://www.w3.org/2000/svg">
<path d="M43.4964 31.4263H8.48053C3.79587 31.4263 0 35.2403 0 39.9068V74.7739C0 78.8475 3.31411 82.1438 7.36987 82.1438C8.55555 82.1438 9.68443 81.8661 10.684 81.3482V129.547C10.684 134.325 14.5731 138.212 19.3493 138.212C22.0152 138.212 24.3852 137.009 25.9779 135.12C27.5704 137.009 29.9586 138.212 32.6064 138.212C37.384 138.212 41.2718 134.323 41.2718 129.547V81.3482C42.2715 81.848 43.4017 82.1438 44.5859 82.1438C48.6595 82.1438 51.9558 78.8297 51.9558 74.7739V39.9068C51.9558 35.2221 48.1417 31.4263 43.4753 31.4263H43.4964ZM47.9215 74.7746C47.9215 76.6074 46.44 78.0887 44.6074 78.0887C42.7746 78.0887 41.2933 76.6072 41.2933 74.7746V47.3511C41.2933 46.2222 40.3866 45.3142 39.2564 45.3142C38.1276 45.3142 37.2196 46.2209 37.2196 47.3511V129.564C37.2196 132.101 35.1646 134.175 32.6086 134.175C30.0538 134.175 27.9977 132.12 27.9977 129.564V89.9389C27.9977 88.81 27.091 87.902 25.9608 87.902C24.832 87.902 23.924 88.8087 23.924 89.9389V129.564C23.924 132.101 21.869 134.175 19.313 134.175C16.7582 134.175 14.7021 132.12 14.7021 129.564L14.7034 47.3511C14.7034 46.2222 13.7967 45.3142 12.6665 45.3142C11.5377 45.3142 10.6297 46.2209 10.6297 47.3511V74.7746C10.6297 76.6074 9.14818 78.0887 7.31555 78.0887C5.48291 78.0887 4.00143 76.6072 4.00143 74.7746V39.9075C4.00143 37.4638 5.98276 35.4824 8.42653 35.4824L43.4986 35.4811C45.9424 35.4811 47.9237 37.4624 47.9237 39.9062L47.9215 74.7746Z" fill="#FFC300"/>
<path d="M25.9982 27.6272C33.6084 27.6272 39.8118 21.4235 39.8118 13.8136C39.8118 6.20367 33.6081 0 25.9982 0C18.3883 0 12.1846 6.20367 12.1846 13.8136C12.1846 21.4235 18.3883 27.6272 25.9982 27.6272ZM25.9982 4.05543C31.3673 4.05543 35.7563 8.42498 35.7563 13.8136C35.7563 19.2022 31.3868 23.5718 25.9982 23.5718C20.6096 23.5718 16.24 19.2022 16.24 13.8136C16.24 8.42498 20.6096 4.05543 25.9982 4.05543Z" fill="#FFC300"/>
</svg>
