<svg width="380" height="382" viewBox="0 0 380 382" fill="none" xmlns="http://www.w3.org/2000/svg">
<path d="M314.732 315.238V293.953V293.956C314.732 290.044 311.566 286.874 307.663 286.874C303.757 286.874 300.59 290.044 300.59 293.956L301.071 332.286V332.283C301.065 334.161 301.82 335.96 303.166 337.268C304.451 338.585 306.217 339.325 308.056 339.319L346.335 338.838V338.841C350.219 338.746 353.319 335.563 353.316 331.673C353.27 327.795 350.116 324.68 346.246 324.68H324.989L325.994 323.588V323.585C357.835 290.91 376.878 247.857 379.649 202.287C382.419 156.715 368.731 111.668 341.084 75.3611C313.439 39.0574 273.674 13.9213 229.059 4.53782C194.558 -2.59906 158.758 -0.0443134 125.616 11.9216C122.52 13.5588 121.098 17.2294 122.286 20.5277C123.473 23.8295 126.904 25.7501 130.332 25.0336C167.817 11.4732 208.795 11.065 246.542 23.8751C284.292 36.6886 316.573 61.9622 338.099 95.5554C359.624 129.145 369.111 169.065 365.01 208.761C360.908 248.46 343.463 285.587 315.526 314.052L314.732 315.238Z" fill="#111827"/>
<path d="M254.449 370.4C256.443 369.982 258.16 368.723 259.155 366.945C260.149 365.164 260.326 363.042 259.634 361.124C258.944 359.206 257.456 357.684 255.556 356.946C253.655 356.208 251.526 356.333 249.724 357.285C212.141 370.933 171.034 371.4 133.149 358.605C95.2666 345.807 62.8629 320.513 41.2625 286.87C19.6621 253.23 10.1455 213.242 14.2815 173.485C18.4174 133.722 35.9584 96.5482 64.0185 68.0705L65.0677 66.9789V88.3116V88.3086C65.1165 92.1873 68.2734 95.3036 72.153 95.3036C76.0449 95.2091 79.1498 92.0257 79.1498 88.1347L78.6679 49.7962C78.6252 46.0364 75.6483 42.9658 71.8906 42.8042L33.5426 43.2402C29.6507 43.3348 26.5458 46.5182 26.5458 50.4091C26.5946 54.2879 29.7514 57.4042 33.631 57.4042H54.9262L53.9196 58.4958C18.9571 94.4253 -0.417167 142.693 0.00681486 192.817C0.430773 242.941 20.6132 290.878 56.1769 326.209C91.7406 361.54 139.81 381.428 189.946 381.542C211.919 381.493 233.726 377.724 254.443 370.397L254.449 370.4Z" fill="#111827"/>
<path d="M95.2437 272.254C91.0252 274.325 88.6368 278.894 89.3475 283.54C90.0582 288.185 93.7033 291.83 98.3486 292.544C100.792 292.922 103.266 293.099 105.739 293.069C118.779 292.861 131.475 288.832 142.252 281.481C172.538 297.391 208.763 297.169 238.854 280.892C268.945 264.612 288.951 234.417 292.209 200.359C295.467 166.301 281.549 132.858 255.087 111.174C228.629 89.4864 193.105 82.3998 160.351 92.2804C127.598 102.16 101.914 127.704 91.8602 160.406C81.8033 193.106 88.697 228.67 110.241 255.245C107.194 262.377 101.938 268.341 95.2429 272.257L95.2437 272.254ZM127.516 127.946C143.21 112.28 164.207 103.073 186.362 102.143C208.516 101.216 230.216 108.631 247.163 122.928C264.113 137.222 275.085 157.357 277.907 179.353C280.725 201.346 275.192 223.598 262.399 241.711C249.606 259.82 230.484 272.474 208.812 277.165C187.139 281.856 164.494 278.248 145.356 267.05C144.267 266.415 143.032 266.068 141.769 266.043C140.186 266.019 138.64 266.546 137.398 267.532C129.605 273.66 120.265 277.506 110.418 278.638C116.735 272.44 121.695 264.994 124.977 256.773C126.03 254.315 125.606 251.472 123.886 249.428C108.958 232.526 101.024 210.573 101.698 188.034C102.372 165.495 111.602 144.055 127.515 128.077L127.516 127.946Z" fill="#111827"/>
<path d="M189.432 198.259C193.42 198.262 196.668 195.051 196.717 191.062C196.705 189.159 195.936 187.336 194.585 185.997C193.212 184.637 191.362 183.871 189.432 183.865C185.512 183.958 182.37 187.141 182.323 191.062C182.357 192.962 183.12 194.778 184.455 196.126C185.775 197.459 187.56 198.225 189.432 198.259Z" fill="#111827"/>
<path d="M216.301 198.259C220.27 198.212 223.49 195.034 223.586 191.065C223.577 189.153 222.79 187.325 221.408 186.002C220.087 184.636 218.265 183.865 216.366 183.865C214.466 183.865 212.647 184.636 211.324 186.002C209.954 187.328 209.186 189.156 209.192 191.065C209.198 192.97 209.967 194.792 211.324 196.127C212.653 197.444 214.432 198.206 216.301 198.259H216.301Z" fill="#111827"/>
<path d="M163.52 198.259C165.425 198.246 167.244 197.481 168.586 196.126C169.956 194.79 170.752 192.974 170.808 191.062C170.808 187.085 167.585 183.865 163.61 183.865C159.634 183.865 156.414 187.085 156.414 191.062C156.445 192.962 157.207 194.778 158.546 196.126C159.857 197.465 161.645 198.234 163.52 198.259Z" fill="#111827"/>
</svg>
